<svg width="516" height="583" viewBox="0 0 516 583" fill="none" xmlns="http://www.w3.org/2000/svg">
<g filter="url(#filter0_d)">
<rect x="23" y="309.755" width="228.464" height="347.786" rx="5" transform="rotate(-44.0174 23 309.755)" fill="black"/>
</g>
<path fill-rule="evenodd" clip-rule="evenodd" d="M245.288 539.801L140.64 431.501C142.774 419.82 148.25 409.005 156.786 400.542C163.176 394.046 172 390.444 179.725 387.291C185.592 384.897 190.825 382.761 193.877 379.812C196.558 377.221 198.716 372.456 201.268 366.818C205.355 357.793 210.454 346.534 220.332 338.384C226.424 333.253 244.491 319.195 270.339 324.625C269.939 325.956 261.816 354.957 284.094 377.624C310.81 404.691 343.025 391.126 343.41 390.943C343.877 391.814 352.184 407.583 355.833 428.609C359.04 446.852 361.862 465.278 349.847 477.265C344.092 483.104 338.501 485.191 332.685 487.362C326.65 489.616 320.372 491.959 313.418 498.679C306.028 505.82 303.313 512.314 300.698 518.57C298.446 523.957 296.268 529.167 291.244 534.459C280.723 545.319 262.282 543.064 245.288 539.801ZM178.243 294.633C189.598 304.058 195.72 318.728 196.786 332.429C197.852 346.13 193.342 362.008 182.611 370.867C171.252 361.824 165.812 346.116 165.112 333.762C164.239 319.873 169.613 303.727 178.243 294.633Z" fill="#111111"/>
<path d="M76.2083 306.897C75.0924 307.975 72.1792 308.417 70.4031 310.219C68.0318 312.568 67.1022 316.011 67.8786 319.292C69.4305 325.884 77.2524 330.278 82.9691 331.33C85.7617 331.834 88.9682 332.338 90.776 330.477C92.493 328.675 92.1511 326.975 94.3217 324.878C96.477 322.795 98.1743 323.328 100.027 321.452C101.924 319.562 101.547 316.724 101.109 313.916C100.612 310.679 99.3778 308.27 99.3083 308.136C99.2482 308.166 94.2202 310.365 90.1738 306.269C86.7998 302.839 88.1498 298.332 88.2159 298.125C84.2341 297.369 81.3936 299.599 80.4346 300.412C77.9091 302.509 77.3089 305.834 76.2083 306.897ZM76.8107 299.567C76.6898 297.454 75.7897 295.207 74.0632 293.787C72.6988 295.22 71.8154 297.732 71.9057 299.875C71.9745 301.781 72.7655 304.191 74.4941 305.551C76.1828 304.148 76.9316 301.681 76.8107 299.567Z" fill="white"/>
<path d="M237.424 492.668C237.228 492.857 237.005 493.006 236.754 493.114C236.504 493.201 236.248 493.247 235.988 493.254C235.728 493.238 235.474 493.183 235.227 493.088C234.991 492.982 234.773 492.826 234.573 492.619C234.373 492.412 234.224 492.188 234.126 491.949C234.04 491.699 233.999 491.449 234.003 491.2C234.008 490.929 234.063 490.675 234.169 490.439C234.275 490.181 234.426 489.957 234.622 489.768C235.025 489.379 235.509 489.189 236.074 489.199C236.629 489.197 237.101 489.398 237.49 489.8C237.879 490.203 238.069 490.687 238.059 491.253C238.038 491.807 237.826 492.279 237.424 492.668ZM245.658 503.434L237.486 494.977L239.747 492.792L247.918 501.249L245.658 503.434ZM252.885 496.45L243.079 486.302L239.628 489.637L237.493 487.428L246.726 478.506L248.861 480.715L245.409 484.05L255.215 494.198L252.885 496.45ZM263.803 483.764L263.665 483.898C263.812 484.579 263.783 485.263 263.579 485.95C263.364 486.625 262.969 487.241 262.393 487.797C261.323 488.83 260.207 489.275 259.044 489.131C257.892 488.975 256.789 488.351 255.732 487.258L250.779 482.132L253.04 479.947L257.726 484.797C258.316 485.407 258.887 485.734 259.441 485.777C259.995 485.798 260.531 485.558 261.049 485.058C261.359 484.758 261.569 484.433 261.676 484.084C261.785 483.713 261.814 483.34 261.763 482.965C261.714 482.568 261.585 482.182 261.376 481.805C261.168 481.405 260.897 481.033 260.563 480.687L256.561 476.545L258.822 474.36L266.994 482.817L264.871 484.869L263.803 483.764ZM263.949 471.542L264.087 471.409C263.94 470.727 263.975 470.049 264.19 469.374C264.394 468.687 264.784 468.066 265.359 467.51C265.888 466.998 266.438 466.635 267.007 466.418C267.577 466.201 268.144 466.132 268.708 466.21C269.273 466.264 269.835 466.455 270.395 466.782C270.956 467.085 271.498 467.508 272.02 468.048L276.973 473.174L274.712 475.359L270.026 470.509C269.437 469.9 268.865 469.584 268.311 469.563C267.757 469.52 267.222 469.748 266.704 470.249C266.393 470.549 266.184 470.885 266.075 471.256C265.968 471.605 265.939 471.978 265.988 472.375C266.039 472.749 266.168 473.136 266.376 473.536C266.584 473.913 266.855 474.274 267.189 474.619L271.191 478.761L268.93 480.946L260.759 472.489L262.882 470.438L263.949 471.542ZM284.881 461.595C285.157 462.663 285.167 463.733 284.911 464.803C284.667 465.863 284.067 466.854 283.112 467.777C282.468 468.399 281.764 468.868 281 469.183C280.237 469.476 279.459 469.615 278.668 469.602C277.876 469.588 277.104 469.422 276.351 469.103C275.599 468.762 274.906 468.264 274.272 467.608C273.683 466.998 273.236 466.317 272.932 465.565C272.617 464.802 272.461 464.03 272.463 463.249C272.454 462.457 272.597 461.684 272.893 460.931C273.2 460.167 273.676 459.473 274.32 458.851C274.999 458.195 275.714 457.726 276.466 457.445C277.206 457.152 277.95 457.035 278.695 457.093C279.43 457.139 280.151 457.344 280.857 457.707C281.564 458.07 282.223 458.568 282.835 459.201C282.912 459.281 282.979 459.35 283.035 459.408C283.09 459.488 283.145 459.557 283.201 459.614C283.245 459.683 283.3 459.752 283.367 459.821L276.999 465.975C277.378 466.275 277.759 466.486 278.142 466.605C278.525 466.702 278.903 466.737 279.277 466.71C279.652 466.659 280.004 466.552 280.335 466.388C280.655 466.213 280.947 465.997 281.212 465.741C281.73 465.241 282.044 464.715 282.156 464.162C282.267 463.587 282.249 463.026 282.099 462.481L284.881 461.595ZM279.659 460.3C279.503 460.162 279.29 460.045 279.02 459.95C278.761 459.844 278.468 459.793 278.14 459.799C277.823 459.794 277.488 459.861 277.135 460.002C276.793 460.132 276.45 460.364 276.105 460.698C275.621 461.165 275.329 461.714 275.228 462.346C275.126 462.978 275.24 463.613 275.568 464.253L279.659 460.3ZM292.131 459.062C291.578 459.596 291.017 460.005 290.446 460.289C289.887 460.563 289.341 460.746 288.807 460.838C288.274 460.908 287.76 460.905 287.263 460.829C286.755 460.741 286.299 460.603 285.895 460.415L287.081 457.601C287.699 457.849 288.275 457.927 288.808 457.834C289.342 457.719 289.81 457.467 290.213 457.077C290.627 456.677 290.883 456.286 290.98 455.902C291.077 455.519 291.025 455.224 290.825 455.017C290.603 454.787 290.321 454.703 289.981 454.765C289.641 454.805 289.168 455.006 288.562 455.369L287.121 456.261C286.8 456.459 286.435 456.634 286.025 456.785C285.627 456.925 285.218 457.009 284.799 457.035C284.38 457.062 283.962 457.01 283.546 456.878C283.129 456.747 282.743 456.497 282.387 456.128C281.987 455.714 281.718 455.263 281.579 454.774C281.452 454.274 281.438 453.764 281.537 453.245C281.626 452.715 281.821 452.192 282.124 451.677C282.428 451.139 282.821 450.637 283.304 450.17C284.11 449.391 284.985 448.858 285.929 448.568C286.862 448.267 287.811 448.318 288.778 448.719L287.594 451.397C287.111 451.219 286.642 451.206 286.186 451.356C285.731 451.507 285.348 451.732 285.038 452.033C284.715 452.344 284.5 452.685 284.392 453.057C284.273 453.417 284.313 453.7 284.513 453.908C284.702 454.103 284.95 454.164 285.257 454.09C285.575 454.005 285.951 453.842 286.386 453.6L287.98 452.66C289.043 452.033 290.004 451.75 290.863 451.81C291.723 451.847 292.452 452.177 293.053 452.798C293.409 453.166 293.661 453.6 293.811 454.101C293.961 454.601 294.003 455.14 293.936 455.716C293.87 456.269 293.685 456.837 293.381 457.42C293.088 457.992 292.671 458.54 292.131 459.062Z" fill="white"/>
<g filter="url(#filter1_d)">
<rect x="89" y="183.356" width="228.464" height="347.786" rx="5" transform="rotate(-29.1705 89 183.356)" fill="#00C3FF"/>
</g>
<path d="M123.082 191.685L150.13 197.202L140.631 223.118C140.241 223.182 139.853 223.14 139.517 222.996C139.182 222.852 138.912 222.613 138.744 222.31L122.782 193.715C122.613 193.412 122.552 193.058 122.605 192.697C122.659 192.336 122.825 191.984 123.082 191.685ZM152.007 197.584L158.121 198.83L143.949 219.558L152.007 197.584ZM154.994 189.445L161.431 189.142C161.779 189.126 162.113 189.195 162.401 189.342C162.689 189.488 162.92 189.708 163.07 189.978C163.221 190.248 163.287 190.56 163.261 190.882C163.235 191.204 163.118 191.524 162.921 191.812L159.283 197.134L152.667 195.785L154.994 189.445ZM127.856 190.728L152.939 189.542L150.789 195.403L127.856 190.728Z" fill="white"/>
<path fill-rule="evenodd" clip-rule="evenodd" d="M258.606 486.457L168.157 324.422L294.405 360.207L258.606 486.457ZM335.391 371.818L304.035 362.935L270.663 480.54L335.391 371.818ZM348.877 319.885L316.403 319.374L306.767 353.306L340.698 362.918L357.317 335.004C358.213 333.496 358.697 331.779 358.721 330.026C358.745 328.273 358.307 326.544 357.453 325.013C356.598 323.482 355.356 322.202 353.851 321.302C352.346 320.402 350.631 319.914 348.877 319.885ZM306.038 319.211L179.517 317.257L297.137 350.577L306.038 319.211Z" fill="#3CCFFD"/>
<path d="M257.137 414.299L264.493 410.193C264.628 410.338 264.776 410.521 264.937 410.743C265.098 410.965 265.244 411.194 265.377 411.432C265.915 412.396 266.275 413.386 266.457 414.402C266.64 415.418 266.604 416.436 266.349 417.458C266.076 418.545 265.581 419.545 264.863 420.459C264.146 421.372 263.186 422.165 261.985 422.835C260.895 423.444 259.759 423.821 258.577 423.968C257.394 424.115 256.252 424.038 255.149 423.737C254.047 423.436 253.021 422.928 252.072 422.212C251.114 421.482 250.32 420.551 249.688 419.419C249.057 418.288 248.685 417.13 248.574 415.946C248.455 414.748 248.557 413.601 248.879 412.505C249.202 411.408 249.736 410.396 250.482 409.466C251.227 408.537 252.145 407.768 253.235 407.16C254.45 406.482 255.65 406.087 256.834 405.976C258.032 405.857 259.18 405.976 260.278 406.335L259.393 409.33C258.616 409.086 257.852 408.999 257.103 409.068C256.347 409.124 255.549 409.386 254.711 409.854C254.026 410.236 253.447 410.725 252.973 411.319C252.491 411.9 252.144 412.542 251.932 413.247C251.721 413.951 251.655 414.703 251.734 415.501C251.819 416.278 252.081 417.058 252.517 417.84C252.954 418.623 253.484 419.261 254.109 419.756C254.739 420.228 255.409 420.559 256.12 420.749C256.845 420.931 257.584 420.976 258.34 420.885C259.087 420.779 259.81 420.531 260.508 420.141C261.305 419.697 261.913 419.211 262.333 418.683C262.759 418.133 263.067 417.568 263.255 416.986C263.394 416.579 263.456 416.132 263.441 415.646C263.432 415.137 263.351 414.615 263.198 414.077L258.483 416.709L257.137 414.299ZM270.08 403.969C270.876 403.524 271.681 403.258 272.494 403.171C273.312 403.062 274.096 403.12 274.844 403.344C275.598 403.546 276.295 403.908 276.934 404.43C277.588 404.945 278.137 405.6 278.582 406.397C279.026 407.193 279.296 408.005 279.391 408.831C279.5 409.65 279.446 410.44 279.23 411.202C279.02 411.942 278.658 412.639 278.144 413.293C277.635 413.925 276.983 414.463 276.186 414.908C275.39 415.352 274.582 415.629 273.764 415.738C272.951 415.825 272.168 415.768 271.414 415.566C270.666 415.342 269.965 414.972 269.311 414.458C268.671 413.935 268.129 413.276 267.685 412.48C267.24 411.683 266.963 410.876 266.855 410.057C266.76 409.23 266.817 408.447 267.027 407.707C267.243 406.945 267.605 406.248 268.114 405.616C268.628 404.962 269.284 404.413 270.08 403.969ZM274.771 412.372C275.12 412.177 275.42 411.927 275.672 411.622C275.929 411.295 276.113 410.936 276.224 410.544C276.335 410.152 276.359 409.736 276.296 409.294C276.247 408.845 276.094 408.39 275.837 407.929C275.579 407.468 275.272 407.099 274.916 406.822C274.573 406.536 274.206 406.338 273.814 406.227C273.423 406.116 273.024 406.091 272.618 406.152C272.219 406.192 271.845 406.309 271.496 406.504C271.132 406.707 270.829 406.968 270.586 407.287C270.335 407.592 270.153 407.941 270.042 408.333C269.931 408.724 269.9 409.145 269.949 409.594C270.012 410.035 270.173 410.486 270.43 410.947C270.687 411.408 270.987 411.781 271.33 412.067C271.686 412.344 272.06 412.538 272.452 412.65C272.844 412.761 273.239 412.796 273.639 412.757C274.03 412.703 274.408 412.575 274.771 412.372ZM282.154 397.229C282.951 396.784 283.755 396.518 284.568 396.431C285.387 396.322 286.17 396.38 286.918 396.604C287.672 396.806 288.369 397.168 289.009 397.69C289.663 398.205 290.212 398.861 290.656 399.657C291.101 400.453 291.37 401.265 291.465 402.091C291.574 402.91 291.521 403.7 291.305 404.462C291.095 405.202 290.733 405.899 290.218 406.553C289.709 407.185 289.057 407.723 288.261 408.168C287.464 408.612 286.657 408.889 285.838 408.998C285.025 409.085 284.242 409.028 283.488 408.826C282.74 408.602 282.039 408.233 281.385 407.718C280.746 407.195 280.204 406.536 279.759 405.74C279.314 404.943 279.038 404.136 278.929 403.317C278.834 402.491 278.891 401.707 279.101 400.967C279.317 400.205 279.68 399.508 280.188 398.876C280.703 398.222 281.358 397.673 282.154 397.229ZM286.845 405.632C287.195 405.437 287.495 405.187 287.746 404.882C288.003 404.555 288.187 404.196 288.299 403.804C288.41 403.412 288.434 402.996 288.371 402.554C288.322 402.105 288.168 401.65 287.911 401.189C287.654 400.728 287.347 400.359 286.99 400.082C286.648 399.796 286.281 399.598 285.889 399.487C285.497 399.376 285.098 399.351 284.693 399.413C284.293 399.452 283.919 399.569 283.57 399.764C283.207 399.967 282.903 400.228 282.66 400.547C282.409 400.852 282.228 401.201 282.117 401.593C282.006 401.984 281.975 402.405 282.024 402.854C282.087 403.295 282.247 403.746 282.504 404.207C282.762 404.668 283.062 405.042 283.404 405.327C283.76 405.604 284.135 405.798 284.526 405.91C284.918 406.021 285.314 406.056 285.713 406.017C286.105 405.963 286.482 405.835 286.845 405.632ZM302.736 406.025C302.01 406.43 301.305 406.695 300.623 406.819C299.963 406.949 299.338 406.978 298.747 406.905C298.164 406.845 297.632 406.712 297.149 406.504C296.667 406.297 296.262 406.047 295.933 405.754L297.968 403.244C298.468 403.68 299.023 403.919 299.634 403.963C300.253 404.021 300.834 403.898 301.379 403.594C302.245 403.11 302.778 402.456 302.977 401.63C303.183 400.818 303.017 399.931 302.479 398.967L302.082 398.254L301.914 398.348C301.842 398.974 301.615 399.568 301.232 400.13C300.856 400.67 300.311 401.139 299.599 401.537C298.984 401.88 298.313 402.089 297.586 402.165C296.873 402.234 296.164 402.162 295.46 401.951C294.747 401.725 294.068 401.362 293.422 400.861C292.776 400.361 292.227 399.705 291.775 398.895C291.323 398.085 291.053 397.273 290.966 396.461C290.871 395.634 290.918 394.866 291.108 394.155C291.29 393.43 291.597 392.782 292.029 392.211C292.476 391.632 293.006 391.171 293.621 390.828C294.334 390.43 295.022 390.22 295.687 390.197C296.359 390.152 296.98 390.263 297.551 390.531L297.718 390.437L297.098 389.327L299.718 387.865L305.04 397.4C305.524 398.266 305.824 399.115 305.941 399.948C306.065 400.795 306.022 401.588 305.813 402.328C305.611 403.082 305.244 403.772 304.714 404.398C304.206 405.03 303.546 405.572 302.736 406.025ZM298.805 398.736C299.14 398.549 299.434 398.303 299.685 397.998C299.95 397.685 300.142 397.34 300.261 396.962C300.372 396.57 300.407 396.156 300.366 395.721C300.316 395.272 300.163 394.817 299.906 394.356C299.649 393.895 299.342 393.526 298.985 393.249C298.629 392.971 298.258 392.784 297.874 392.687C297.483 392.576 297.084 392.551 296.678 392.612C296.287 392.666 295.924 392.786 295.588 392.973C295.253 393.16 294.96 393.407 294.709 393.712C294.457 394.017 294.276 394.365 294.165 394.757C294.054 395.149 294.023 395.569 294.072 396.018C294.113 396.454 294.263 396.902 294.52 397.363C294.777 397.824 295.084 398.193 295.441 398.47C295.789 398.734 296.16 398.921 296.552 399.032C296.936 399.129 297.323 399.151 297.715 399.097C298.106 399.044 298.47 398.923 298.805 398.736ZM307.79 396.827L299.415 381.822L302.16 380.29L310.535 395.294L307.79 396.827ZM321.127 386.139C321.12 387.242 320.855 388.278 320.334 389.248C319.826 390.209 318.992 391.013 317.833 391.661C317.05 392.097 316.25 392.37 315.431 392.479C314.618 392.566 313.831 392.502 313.069 392.286C312.307 392.07 311.603 391.711 310.957 391.211C310.318 390.688 309.775 390.029 309.331 389.233C308.918 388.492 308.66 387.719 308.559 386.915C308.45 386.096 308.497 385.309 308.699 384.555C308.893 383.787 309.23 383.077 309.709 382.425C310.202 381.765 310.839 381.217 311.622 380.78C312.446 380.32 313.257 380.05 314.056 379.971C314.847 379.878 315.595 379.955 316.301 380.202C317 380.435 317.644 380.818 318.234 381.349C318.824 381.881 319.333 382.531 319.762 383.3C319.817 383.398 319.864 383.481 319.903 383.551C319.935 383.643 319.971 383.724 320.01 383.794C320.035 383.871 320.071 383.952 320.118 384.036L312.385 388.352C312.675 388.74 312.99 389.041 313.329 389.255C313.674 389.447 314.031 389.577 314.4 389.647C314.774 389.694 315.142 389.681 315.504 389.607C315.859 389.519 316.196 389.386 316.518 389.206C317.146 388.855 317.585 388.427 317.834 387.922C318.09 387.394 318.215 386.848 318.211 386.282L321.127 386.139ZM316.411 383.549C316.295 383.375 316.119 383.208 315.883 383.047C315.66 382.878 315.39 382.754 315.071 382.675C314.766 382.589 314.425 382.569 314.047 382.614C313.684 382.652 313.292 382.788 312.873 383.022C312.287 383.35 311.863 383.806 311.603 384.391C311.343 384.976 311.29 385.619 311.444 386.321L316.411 383.549ZM329.368 384.782L320.993 369.777L326.273 366.829C326.986 366.432 327.716 366.18 328.463 366.074C329.217 365.947 329.941 365.964 330.636 366.126C331.331 366.288 331.975 366.588 332.568 367.026C333.153 367.451 333.641 368.013 334.031 368.711C334.428 369.424 334.658 370.147 334.72 370.882C334.775 371.603 334.688 372.302 334.461 372.978C334.234 373.655 333.872 374.287 333.376 374.876C332.886 375.442 332.285 375.925 331.573 376.322L329.121 377.691L332.197 383.203L329.368 384.782ZM330.117 373.617C330.858 373.203 331.3 372.682 331.443 372.052C331.586 371.422 331.506 370.835 331.201 370.29C331.053 370.025 330.86 369.794 330.622 369.597C330.398 369.392 330.137 369.254 329.84 369.181C329.549 369.087 329.233 369.062 328.891 369.106C328.549 369.15 328.19 369.278 327.813 369.488L325.319 370.88L327.623 375.009L330.117 373.617ZM341.537 377.989L333.161 362.984L335.907 361.452L344.282 376.457L341.537 377.989ZM352.251 370.579L352.083 370.673C351.98 371.243 351.776 371.797 351.471 372.334C351.18 372.863 350.678 373.326 349.966 373.724C349.435 374.02 348.881 374.21 348.305 374.294C347.75 374.383 347.213 374.372 346.692 374.26C346.171 374.147 345.692 373.929 345.254 373.605C344.817 373.281 344.454 372.861 344.166 372.344C343.869 371.813 343.709 371.279 343.685 370.743C343.652 370.193 343.739 369.659 343.945 369.141C344.15 368.623 344.462 368.147 344.879 367.713C345.302 367.257 345.814 366.861 346.415 366.526C347.086 366.151 347.669 365.899 348.164 365.769C348.652 365.625 349.067 365.531 349.408 365.487L349.233 365.173C348.929 364.628 348.463 364.301 347.835 364.194C347.199 364.072 346.559 364.191 345.917 364.55C344.967 365.08 344.386 365.927 344.174 367.09L341.422 366.839C341.748 364.861 342.854 363.346 344.74 362.293C346.332 361.404 347.758 361.103 349.018 361.39C350.269 361.662 351.305 362.532 352.123 363.999L355.563 370.16L352.859 371.669L352.251 370.579ZM350.531 367.499C350.124 367.524 349.723 367.593 349.327 367.704C348.937 367.793 348.539 367.951 348.134 368.177C347.477 368.544 347.049 368.975 346.85 369.471C346.657 369.946 346.677 370.392 346.911 370.811C347.145 371.231 347.5 371.472 347.975 371.537C348.465 371.593 348.933 371.497 349.38 371.247C349.744 371.044 350.044 370.794 350.281 370.497C350.51 370.186 350.671 369.867 350.764 369.54C350.863 369.192 350.89 368.847 350.846 368.505C350.808 368.141 350.703 367.806 350.531 367.499ZM360.487 366.751L350.719 359.396L353.841 357.653L359.914 362.426L360.061 362.344L359.08 354.728L362.14 353.02L363.965 371.406L361.01 373.056L360.487 366.751Z" fill="white"/>
<g filter="url(#filter2_d)">
<rect x="193" y="74.4973" width="228.464" height="347.786" rx="5" transform="rotate(-12.5125 193 74.4973)" fill="#F79521"/>
</g>
<path fill-rule="evenodd" clip-rule="evenodd" d="M267.569 410.511C282.077 410.186 296.877 408.42 311.807 405.107C344.329 397.89 379.893 381.2 405.241 358.783C408.714 355.845 411.978 352.701 415.013 349.371C419.243 344.995 413.708 340.851 409.169 344.031C408.107 344.672 406.976 345.42 405.845 346.169C404.842 346.832 403.838 347.497 402.881 348.086C373.73 366.566 341.64 379.272 310.793 386.118C295.089 389.603 279.273 391.773 263.62 392.716L267.569 410.511ZM233.776 258.235L254.852 353.206C261.3 353.825 268.13 353.338 275.096 351.792C283.3 350.031 291.263 347.308 298.791 343.689C309.354 337.907 317.493 329.766 326.371 316.325C327.804 317.493 329.096 318.577 330.316 319.599C336.176 324.512 340.365 328.024 350.532 332.799C352.478 333.71 356.715 332.585 358.714 330.39C364.625 323.35 374.889 310.747 380.215 303.836C382.702 300.94 381.384 297.835 379.003 295.479C378.47 295.075 377.937 294.676 377.408 294.279C369.735 288.526 362.58 283.161 359.511 269.331L348.572 220.041C348.165 218.206 347.774 216.381 347.387 214.571C343.38 195.854 339.72 178.755 321.722 169.108C305.513 160.654 283.2 161.01 266.585 164.697L259.462 166.278C244.294 170.506 229.268 177.512 218.211 188.1L228.218 233.192L241.013 231.887C244.491 230.496 245.646 227.395 245.606 224.507C245.917 211.809 256.132 202.654 266.877 199.69C276.773 196.954 284.674 198.624 290.048 203.134C295.596 208.139 297.081 214.974 299.438 225.819C299.699 227.022 299.971 228.274 300.26 229.578L300.249 229.593C289.992 231.922 258.708 241.63 238.62 254.78C236.94 255.879 235.324 257.031 233.776 258.235ZM427.742 367.644C437.979 355.245 439.595 336.449 437.57 327.324L437.581 327.308C436.737 323.505 435.809 322.157 435.202 321.739C432.002 319.552 413.312 320.973 398.608 328.767C394.469 331.042 391.005 333.654 387.952 336.768C385.564 339.142 386.637 341.274 389.354 340.447C391.229 339.646 393.491 338.904 396.026 338.072C397.39 337.624 398.834 337.15 400.338 336.627C409.811 333.722 421.061 330.975 424.515 333.659C429.357 337.127 425.266 357.777 423.462 366.711C422.941 369.513 425.653 369.951 427.742 367.644ZM306.789 259.032C310.631 276.163 312.522 284.595 308.212 296.189C305.752 304.808 300.996 310.289 292.389 314.648C291.094 315.317 289.559 315.869 287.761 316.268C274.714 319.163 264.925 311.564 261.889 297.883C258.006 280.386 267.464 269.622 280.852 262.66C288.176 259.283 296.971 256.739 305.837 254.771C306.165 256.251 306.483 257.669 306.789 259.032Z" fill="#EC8409"/>
<path d="M264.625 111.078C264.906 112.347 264.697 114.957 263.309 116.674C263.025 116.993 262.655 116.93 262.725 116.541C262.965 115.301 263.511 112.435 262.848 111.95C262.376 111.575 260.843 111.95 259.554 112.348C258.968 112.553 258.451 112.703 258.058 112.872C257.688 112.985 257.541 112.688 257.865 112.36C258.279 111.929 258.75 111.568 259.313 111.255C261.313 110.181 263.861 109.995 264.298 110.301C264.381 110.359 264.509 110.547 264.626 111.076L264.625 111.078ZM261.562 114.127C261.15 114.588 260.707 115.023 260.235 115.429C256.793 118.528 251.954 120.825 247.524 121.808C240.395 123.39 233.47 122.332 227.713 119.267C227.229 119.042 227.47 118.505 228.01 118.647C233.858 120.352 240.694 120.652 247.374 119.17C251.576 118.237 255.944 116.491 259.907 113.941C260.184 113.768 260.49 113.549 260.762 113.382C261.379 112.943 262.136 113.522 261.562 114.127ZM245.844 97.4155C245.441 95.5986 245.279 94.5117 244.435 93.7357C243.7 93.1059 242.622 92.8691 241.274 93.2432C239.811 93.6485 238.424 94.9142 238.389 96.6782C238.396 97.0795 238.24 97.5096 237.767 97.7007L233.128 98.1625C232.79 98.1643 232.248 98.0409 232.273 97.3981C232.177 92.3794 236.169 89.7373 240.243 88.5969L241.213 88.3816C243.476 87.8794 246.519 87.8434 248.734 89.0275C251.431 90.5093 251.783 93.2259 252.425 96.1198L253.946 102.974C254.403 105.03 255.49 105.745 256.62 106.618C256.946 106.947 257.127 107.379 256.79 107.78C256.068 108.737 254.676 110.482 253.875 111.456C253.603 111.76 253.026 111.914 252.76 111.786C251.082 110.977 250.595 110.43 249.456 109.483C248.254 111.345 247.149 112.471 245.712 113.268C244.688 113.766 243.604 114.14 242.486 114.379C238.609 115.24 235.032 113.647 234.034 109.149C233.241 105.573 234.723 102.693 237.455 100.88C240.186 99.065 244.445 97.7351 245.842 97.4177L245.844 97.4155ZM246.968 106.674C247.595 104.938 247.239 103.71 246.619 100.919C245.412 101.187 244.214 101.535 243.217 102C241.396 102.959 240.113 104.449 240.653 106.882C241.075 108.784 242.415 109.846 244.192 109.452C244.437 109.397 244.646 109.322 244.822 109.229C245.993 108.629 246.638 107.87 246.968 106.674Z" fill="white"/>
<path d="M282.987 338.078L286.595 337.277L296.62 352.654L293.129 353.429L290.858 349.729L284.391 351.164L283.898 355.478L280.407 356.252L282.987 338.078ZM289.182 347.053L286.752 343.192L285.69 341.288L285.503 341.33L285.346 343.504L284.777 348.03L289.182 347.053ZM295.662 340.821L298.544 340.181L298.876 341.681L299.064 341.639C299.298 340.997 299.682 340.437 300.215 339.958C300.763 339.476 301.413 339.151 302.162 338.985C303.037 338.791 303.816 338.831 304.5 339.105C305.184 339.38 305.716 339.786 306.098 340.324C306.329 339.666 306.727 339.062 307.293 338.51C307.856 337.943 308.606 337.555 309.543 337.347C310.246 337.191 310.881 337.173 311.448 337.293C312.012 337.397 312.503 337.616 312.921 337.949C313.355 338.279 313.722 338.714 314.022 339.254C314.319 339.778 314.542 340.376 314.691 341.048L316.297 348.287L313.228 348.969L311.746 342.291C311.4 340.729 310.586 340.09 309.305 340.374C308.899 340.465 308.56 340.638 308.29 340.895C308.015 341.136 307.804 341.437 307.654 341.798C307.517 342.14 307.433 342.535 307.401 342.985C307.386 343.431 307.431 343.896 307.539 344.38L308.776 349.957L305.707 350.638L304.225 343.96C303.879 342.398 303.034 341.766 301.69 342.064C301.3 342.151 300.977 342.321 300.722 342.574C300.463 342.812 300.267 343.11 300.133 343.467C299.996 343.809 299.919 344.203 299.904 344.649C299.888 345.095 299.934 345.56 300.041 346.044L301.279 351.62L298.209 352.302L295.662 340.821ZM325.516 344.963L325.329 345.005C325.067 345.522 324.712 345.994 324.266 346.421C323.836 346.844 323.222 347.144 322.426 347.321C321.832 347.453 321.247 347.476 320.671 347.391C320.114 347.318 319.602 347.153 319.135 346.896C318.669 346.639 318.272 346.292 317.946 345.857C317.62 345.421 317.393 344.914 317.264 344.336C317.133 343.743 317.132 343.186 317.262 342.665C317.389 342.129 317.625 341.642 317.971 341.205C318.316 340.768 318.751 340.401 319.275 340.104C319.812 339.788 320.416 339.556 321.087 339.407C321.837 339.24 322.468 339.166 322.98 339.184C323.488 339.185 323.913 339.214 324.253 339.27L324.175 338.918C324.039 338.309 323.686 337.863 323.116 337.58C322.541 337.281 321.895 337.212 321.176 337.371C320.114 337.607 319.315 338.251 318.778 339.305L316.214 338.276C317.093 336.475 318.587 335.34 320.695 334.872C322.476 334.477 323.929 334.597 325.053 335.232C326.174 335.852 326.916 336.982 327.28 338.622L328.809 345.511L325.787 346.182L325.516 344.963ZM324.752 341.519C324.354 341.427 323.95 341.377 323.539 341.37C323.14 341.344 322.714 341.381 322.261 341.482C321.526 341.645 320.993 341.935 320.659 342.353C320.338 342.753 320.23 343.186 320.334 343.655C320.438 344.124 320.708 344.457 321.146 344.655C321.598 344.849 322.075 344.891 322.575 344.78C322.981 344.69 323.34 344.537 323.653 344.32C323.961 344.087 324.207 343.828 324.389 343.542C324.584 343.236 324.709 342.913 324.765 342.573C324.832 342.214 324.828 341.863 324.752 341.519ZM330.354 342.513L334.808 334.887L329.138 336.145L328.556 333.521L337.998 331.426L338.559 333.956L334.106 341.582L340.057 340.261L340.639 342.885L330.916 345.043L330.354 342.513ZM345.266 329.419C346.156 329.222 347.003 329.198 347.806 329.347C348.622 329.478 349.356 329.757 350.008 330.186C350.673 330.596 351.237 331.143 351.7 331.826C352.179 332.507 352.517 333.292 352.715 334.183C352.912 335.073 352.938 335.928 352.792 336.747C352.662 337.562 352.384 338.304 351.958 338.972C351.545 339.621 350.998 340.185 350.318 340.664C349.65 341.123 348.87 341.452 347.98 341.65C347.09 341.847 346.237 341.881 345.421 341.751C344.618 341.601 343.884 341.321 343.219 340.912C342.567 340.483 342.001 339.928 341.522 339.248C341.059 338.564 340.729 337.777 340.531 336.886C340.333 335.996 340.3 335.143 340.43 334.327C340.576 333.508 340.856 332.774 341.269 332.125C341.694 331.457 342.241 330.894 342.91 330.434C343.59 329.955 344.375 329.617 345.266 329.419ZM347.351 338.815C347.741 338.728 348.101 338.575 348.429 338.354C348.769 338.115 349.048 337.823 349.267 337.48C349.486 337.136 349.628 336.744 349.694 336.303C349.776 335.859 349.76 335.379 349.645 334.864C349.531 334.348 349.343 333.907 349.081 333.539C348.834 333.167 348.54 332.872 348.196 332.653C347.852 332.434 347.478 332.296 347.072 332.239C346.678 332.163 346.285 332.168 345.895 332.254C345.489 332.344 345.123 332.507 344.799 332.743C344.471 332.964 344.197 333.246 343.979 333.589C343.76 333.933 343.61 334.327 343.528 334.771C343.462 335.212 343.486 335.69 343.6 336.205C343.715 336.721 343.895 337.164 344.141 337.536C344.403 337.904 344.706 338.197 345.05 338.416C345.393 338.635 345.762 338.782 346.156 338.859C346.546 338.919 346.945 338.905 347.351 338.815ZM356.399 328.915L356.586 328.874C356.817 328.216 357.201 327.656 357.737 327.192C358.27 326.714 358.927 326.388 359.708 326.214C360.427 326.055 361.085 326.031 361.684 326.144C362.283 326.257 362.802 326.494 363.243 326.856C363.696 327.198 364.076 327.654 364.383 328.225C364.702 328.777 364.943 329.42 365.106 330.154L366.65 337.113L363.581 337.794L362.12 331.21C361.936 330.382 361.613 329.815 361.152 329.508C360.703 329.181 360.126 329.096 359.424 329.252C359.002 329.346 358.648 329.523 358.361 329.783C358.087 330.024 357.867 330.327 357.702 330.691C357.55 331.036 357.458 331.434 357.426 331.883C357.407 332.314 357.449 332.763 357.553 333.232L358.801 338.855L355.732 339.536L353.184 328.055L356.066 327.416L356.399 328.915Z" fill="white"/>
<defs>
<filter id="filter0_d" x="0.0700073" y="128.07" width="451.824" height="454.718" filterUnits="userSpaceOnUse" color-interpolation-filters="sRGB">
<feFlood flood-opacity="0" result="BackgroundImageFix"/>
<feColorMatrix in="SourceAlpha" type="matrix" values="0 0 0 0 0 0 0 0 0 0 0 0 0 0 0 0 0 0 127 0"/>
<feOffset/>
<feGaussianBlur stdDeviation="12.5"/>
<feColorMatrix type="matrix" values="0 0 0 0 0.501961 0 0 0 0 0.501961 0 0 0 0 0.501961 0 0 0 0.35 0"/>
<feBlend mode="normal" in2="BackgroundImageFix" result="effect1_dropShadow"/>
<feBlend mode="normal" in="SourceGraphic" in2="effect1_dropShadow" result="shape"/>
</filter>
<filter id="filter1_d" x="65.802" y="48.802" width="415.399" height="461.429" filterUnits="userSpaceOnUse" color-interpolation-filters="sRGB">
<feFlood flood-opacity="0" result="BackgroundImageFix"/>
<feColorMatrix in="SourceAlpha" type="matrix" values="0 0 0 0 0 0 0 0 0 0 0 0 0 0 0 0 0 0 127 0"/>
<feOffset/>
<feGaussianBlur stdDeviation="12.5"/>
<feColorMatrix type="matrix" values="0 0 0 0 0 0 0 0 0 0.764706 0 0 0 0 1 0 0 0 0.2 0"/>
<feBlend mode="normal" in2="BackgroundImageFix" result="effect1_dropShadow"/>
<feBlend mode="normal" in="SourceGraphic" in2="effect1_dropShadow" result="shape"/>
</filter>
<filter id="filter2_d" x="168.963" y="0.963379" width="346.46" height="437.096" filterUnits="userSpaceOnUse" color-interpolation-filters="sRGB">
<feFlood flood-opacity="0" result="BackgroundImageFix"/>
<feColorMatrix in="SourceAlpha" type="matrix" values="0 0 0 0 0 0 0 0 0 0 0 0 0 0 0 0 0 0 127 0"/>
<feOffset/>
<feGaussianBlur stdDeviation="12.5"/>
<feColorMatrix type="matrix" values="0 0 0 0 0.968627 0 0 0 0 0.584314 0 0 0 0 0.129412 0 0 0 0.2 0"/>
<feBlend mode="normal" in2="BackgroundImageFix" result="effect1_dropShadow"/>
<feBlend mode="normal" in="SourceGraphic" in2="effect1_dropShadow" result="shape"/>
</filter>
</defs>
</svg>